<svg xmlns="http://www.w3.org/2000/svg" width="256" height="256"><circle cx="128.25" cy="128.25" fill="#5ba4cf" r="127.25"/><path d="M129.7517 100.113a47.982 47.982 0 0 1 3.8788-5.1039c-5.512-13.0658-18.578-22.2527-33.4812-22.2527-20.007 0-36.3394 16.3323-36.3394 36.3394 0 13.0658 6.9412 24.4985 17.353 31.0315 3.6748-9.7995 12.2492-17.15 22.661-18.9864 3.6747-11.2285 13.6783-19.5988 25.9276-21.028zM99.945 65.2027a4.614 4.614 0 0 0 3.3449-1.3505c.8856-.8857 1.373-2.093 1.3508-3.345V45.1956c0-2.5933-2.1024-4.6956-4.6957-4.6956s-4.6955 2.1023-4.6955 4.6956v15.3116c0 2.654 2.2458 4.6955 4.6955 4.6955zM62.3808 78.0644c.8165 1.0208 2.0415 1.4292 3.2664 1.4292s2.45-.4084 3.2665-1.4292c1.8374-1.8374 1.8374-4.8997 0-6.737L58.0935 60.5072c-1.8374-1.8374-4.8997-1.8374-6.737 0s-1.8374 4.8997 0 6.737l11.0244 10.82zm-6.329 31.0315c.0225-1.252-.4652-2.4594-1.3506-3.345a4.614 4.614 0 0 0-3.3449-1.3506H36.0448c-1.6776 0-3.2277.895-4.0664 2.3477s-.8388 3.2428 0 4.6955a4.695 4.695 0 0 0 4.0664 2.3478h15.3116c1.252.0224 2.4595-.465 3.345-1.3506s1.373-2.0928 1.3506-3.345zm6.329 31.0315l-10.8202 10.8202c-1.8374 1.8373-1.8374 4.8996 0 6.737 1.0208 1.0208 2.0416 1.429 3.2664 1.429s2.45-.4083 3.2665-1.429l10.8202-10.82c1.8374-1.8375 1.8374-4.8998 0-6.737a4.553 4.553 0 0 0-3.2665-1.3815c-1.2308 0-2.409.4984-3.2664 1.3815zm72.0665-60.6338c1.2248 0 2.4498-.4084 3.2664-1.4292l10.8203-10.82c1.8372-1.8374 1.8372-4.8998 0-6.737s-4.8998-1.8374-6.7373 0l-10.82 10.8202c-1.8374 1.8373-1.8374 4.8996 0 6.737.9135.93 2.1673 1.4462 3.4707 1.4292z" fill="#f2d600"/><path d="M201.614 115.2206c-4.1783-15.4842-18.26-26.213-34.298-26.1317-14.291 0-26.54 8.3702-32.052 20.4154-.6126 0-1.429-.2043-2.0415-.2043-11.637 0-21.2322 9.187-21.6405 20.8238-.6124 0-1.429-.204-2.0415-.204-11.637 0-21.028 9.391-21.028 21.028s9.39 21.028 21.028 21.028h87.378c15.72 0 28.5815-12.8618 28.5815-28.5817-.204-14.2908-10.4117-25.9276-23.886-28.1732z" fill="#fff"/><path d="M119.1357 179.9375c-2.45-1.0208-5.104.204-6.1247 2.654l-10.0036 24.7028c-1.0208 2.4498.2042 5.104 2.654 6.1247.6124.204 1.2248.4082 1.8373.4082 1.8374 0 3.6748-1.0208 4.2873-2.8582l10.0035-24.7026c1.0208-2.654-.204-5.512-2.654-6.3288zm24.9068 0c-2.45-1.0208-5.104.204-6.1246 2.654l-10.0037 24.7028c-1.0208 2.4498.2042 5.104 2.654 6.1247.6125.204 1.225.4082 1.8373.4082 1.8375 0 3.6748-1.0208 4.2874-2.8582l10.0034-24.7026c1.0208-2.654-.204-5.512-2.654-6.3288zm24.907 0c-2.45-1.0208-5.1038.204-6.1246 2.654l-10.0037 24.7028c-1.0208 2.4498.204 5.104 2.654 6.1247.6125.204 1.225.4082 1.8375.4082 1.8373 0 3.6748-1.0208 4.2872-2.8582l10.0036-24.7026c.8166-2.654-.2042-5.512-2.654-6.3288zm24.9068 0c-2.45-1.0208-5.104.204-6.1247 2.654l-10.0035 24.7028c-1.0208 2.4498.204 5.104 2.654 6.1247.6124.204 1.225.4082 1.8374.4082 1.8374 0 3.6748-1.0208 4.287-2.8582l10.0037-24.7026c.8165-2.654-.2042-5.512-2.654-6.3288z" fill="#026aa7"/></svg>
