<svg xmlns="http://www.w3.org/2000/svg" width="256" height="256"><circle cx="128.25" cy="128.25" fill="#5ba4cf" r="127.25"/><path d="M129.82 98.4952a50.825 50.825 0 0 1 4.1095-5.4074c-5.8398-13.8427-19.6827-23.576-35.472-23.576-21.1968 0-38.5003 17.3035-38.5003 38.5003 0 13.8427 7.354 25.9552 18.385 32.8767 3.8933-10.3822 12.9776-18.1688 24.0086-20.1154 3.8932-11.8962 14.4917-20.7642 27.4693-22.2783zM98.2412 61.51a4.889 4.889 0 0 0 4.9748-4.9748v-16.222c0-2.7475-2.2274-4.975-4.9748-4.975s-4.9748 2.2274-4.9748 4.975v16.222c0 2.8118 2.3793 4.9748 4.9748 4.9748zM58.443 75.1354c.865 1.0815 2.163 1.514 3.4607 1.514s2.5955-.4326 3.4608-1.514c1.9465-1.9466 1.9465-5.191 0-7.1376L53.901 56.5342c-1.9466-1.9467-5.19-1.9467-7.1378 0s-1.9465 5.19 0 7.1377l11.68 11.4635zm-6.7052 32.8768c.0238-1.3265-.4928-2.6057-1.431-3.544s-2.2173-1.4546-3.544-1.431H30.541a4.975 4.975 0 0 0-4.3082 2.4873c-.8887 1.5392-.8887 3.4356 0 4.9748s2.531 2.4874 4.3082 2.4874h16.222c1.3266.0236 2.6058-.4928 3.544-1.431a4.888 4.888 0 0 0 1.4309-3.5438zm6.7052 32.8767l-11.4635 11.4635c-1.9467 1.9466-1.9467 5.19 0 7.1377 1.0814 1.0815 2.163 1.514 3.4606 1.514s2.5956-.4326 3.4607-1.514l11.4637-11.4635c1.9465-1.9468 1.9465-5.191 0-7.1377a4.824 4.824 0 0 0-3.4608-1.4637c-1.304 0-2.5524.528-3.4607 1.4637zm76.3518-64.2394c1.2977 0 2.5955-.4326 3.4606-1.514l11.4637-11.4635c1.9465-1.9467 1.9465-5.191 0-7.1377s-5.191-1.9467-7.1378 0l-11.4636 11.4636c-1.9465 1.9465-1.9465 5.19 0 7.1376.968.9853 2.2962 1.5322 3.677 1.514z" fill="#daa520"/><path d="M205.9556 114.5c-4.4268-16.405-19.346-27.7718-36.3374-27.6856-15.1407 0-28.1183 8.868-33.958 21.6294-.65 0-1.514-.2164-2.163-.2164-12.3288 0-22.4947 9.7332-22.9272 22.062-.649 0-1.514-.2162-2.163-.2162-12.329 0-22.2783 9.9494-22.2783 22.2783s9.9494 22.2782 22.2783 22.2782h92.5738c16.6546 0 30.281-13.6265 30.281-30.2812-.2162-15.1406-11.031-27.4693-25.3063-29.8485z" fill="#bcd9ea"/><path d="M118.573 183.0662c-2.5956-1.0815-5.4074.2162-6.49 2.8116l-10.5985 26.1718c-1.0814 2.5955.2165 5.4074 2.812 6.4888.6488.2163 1.2977.4326 1.9465.4326 1.9467 0 3.8933-1.0816 4.5423-3.0282l10.5983-26.1715c1.0815-2.812-.2162-5.84-2.8117-6.705zm26.3877 0c-2.5956-1.0815-5.4074.2162-6.4888 2.8116l-10.5985 26.1718c-1.0815 2.5955.2163 5.4074 2.812 6.4888.65.2163 1.2977.4326 1.9466.4326 1.9467 0 3.8933-1.0816 4.5423-3.0282l10.5982-26.1715c1.0815-2.812-.2162-5.84-2.8117-6.705zm26.388 0c-2.5955-1.0815-5.4073.2162-6.4888 2.8116l-10.5985 26.1718c-1.0815 2.5955.2162 5.4074 2.8118 6.4888.65.2163 1.2978.4326 1.9468.4326 1.9465 0 3.8932-1.0816 4.542-3.0282l10.5985-26.1715c.8652-2.812-.2163-5.84-2.8118-6.705zm26.388 0c-2.5956-1.0815-5.4073.2162-6.49 2.8116l-10.5983 26.1718c-1.0815 2.5955.2162 5.4074 2.8118 6.4888.6488.2163 1.2978.4326 1.9466.4326 1.9467 0 3.8933-1.0816 4.542-3.0282l10.5985-26.1715c.865-2.812-.2164-5.84-2.8118-6.705z" fill="#026aa7"/></svg>
