<svg xmlns="http://www.w3.org/2000/svg" xmlns:xlink="http://www.w3.org/1999/xlink" viewBox="-949 951 100 100"><path d="M-898.3 987.8a23.48 23.48 0 0 1 1.9-2.5c-2.7-6.4-9.1-10.9-16.4-10.9-9.8 0-17.8 8-17.8 17.8 0 6.4 3.4 12 8.5 15.2 1.8-4.8 6-8.4 11.1-9.3 1.8-5.5 6.7-9.6 12.7-10.3zm-14.6-17.1a2.26 2.26 0 0 0 2.3-2.3v-7.5a2.3 2.3 0 1 0-4.6 0v7.5c0 1.3 1.1 2.3 2.3 2.3zm-18.4 6.3c.4.5 1 .7 1.6.7s1.2-.2 1.6-.7c.9-.9.9-2.4 0-3.3l-5.3-5.3c-.9-.9-2.4-.9-3.3 0s-.9 2.4 0 3.3l5.4 5.3zm-3.1 15.2a2.26 2.26 0 0 0-2.3-2.3h-7.5a2.3 2.3 0 1 0 0 4.6h7.5a2.26 2.26 0 0 0 2.3-2.3zm3.1 15.2l-5.3 5.3c-.9.9-.9 2.4 0 3.3.5.5 1 .7 1.6.7s1.2-.2 1.6-.7l5.3-5.3c.9-.9.9-2.4 0-3.3a2.23 2.23 0 0 0-3.2 0zm35.3-29.7c.6 0 1.2-.2 1.6-.7l5.3-5.3c.9-.9.9-2.4 0-3.3s-2.4-.9-3.3 0l-5.3 5.3c-.9.9-.9 2.4 0 3.3a2.34 2.34 0 0 0 1.7.7z" fill="#6b778c"/><path fill="#6b778c" d="M-863.1 995.2a17.31 17.31 0 0 0-16.8-12.8c-7 0-13 4.1-15.7 10-.3 0-.7-.1-1-.1-5.7 0-10.4 4.5-10.6 10.2-.3 0-.7-.1-1-.1-5.7 0-10.3 4.6-10.3 10.3s4.6 10.3 10.3 10.3h42.8c7.7 0 14-6.3 14-14-.1-7-5.1-12.7-11.7-13.8z"/><g fill="#6b778c"><use xlink:href="#B"/><use xlink:href="#B" x="12.2"/><use xlink:href="#C"/><use xlink:href="#C" x="12.2"/></g><defs ><path id="B" d="M-903.5 1026.9c-1.2-.5-2.5.1-3 1.3l-4.9 12.1c-.5 1.2.1 2.5 1.3 3 .3.1.6.2.9.2.9 0 1.8-.5 2.1-1.4l4.9-12.1c.5-1.3-.1-2.7-1.3-3.1z"/><path id="C" d="M-879.1 1026.9c-1.2-.5-2.5.1-3 1.3l-4.9 12.1c-.5 1.2.1 2.5 1.3 3 .3.1.6.2.9.2.9 0 1.8-.5 2.1-1.4l4.9-12.1c.4-1.3-.1-2.7-1.3-3.1z"/></defs></svg>
